# xmcd CD database file
#
# Track frame offsets:
#	150
#	19245
#	42937
#	60677
#	75720
#	92877
#	102095
#	121660
#	129972
#	133192
#	138965
#	142725
#	149790
#	155795
#	162020
#	169592
#	180220
#	191347
#
# Disc length: 2925 seconds
#
# Revision: 0
# Processed by: cddbd v1.5PL3 Copyright (c) Steve Scherf et al.
# Submitted via: CDex 1.50beta10
#
DISCID=ed0b6b12
DTITLE=嘉門達夫 - 嘉門達夫全曲集 - 2
DYEAR=1900
DGENRE=コミックソング
TTITLE0=ほっといてくれよ！
TTITLE1=日常
TTITLE2=タンバでルンバ
TTITLE3=ウシ
TTITLE4=AWAN AWAN!!
TTITLE5=遥かなる小市民へ（インストルメンタル）
TTITLE6=小市民
TTITLE7=小市民-授業･給食篇-
TTITLE8=小市民-遠足篇-
TTITLE9=小市民-運動会篇-
TTITLE10=小市民-グッズ篇-
TTITLE11=小市民-食生活篇-
TTITLE12=小市民-乗り物篇-
TTITLE13=小市民-お酒篇-
TTITLE14=小市民-夜の生活篇-
TTITLE15=小市民-結婚式篇-
TTITLE16=小市民-会話篇-
TTITLE17=小市民2
EXTD=
EXTT0=
EXTT1=
EXTT2=
EXTT3=
EXTT4=
EXTT5=
EXTT6=
EXTT7=
EXTT8=
EXTT9=
EXTT10=
EXTT11=
EXTT12=
EXTT13=
EXTT14=
EXTT15=
EXTT16=
EXTT17=
PLAYORDER=
